<?xml version="1.0" encoding="UTF-8" standalone="no"?>
<svg
   width="456"
   height="456"
   viewBox="0 0 456 456"
   version="1.1"
   xml:space="preserve"
   style="fill-rule:evenodd;clip-rule:evenodd;stroke-linejoin:round;stroke-miterlimit:2;"
   id="svg10"
   sodipodi:docname="appiconfg.svg"
   inkscape:version="1.2.1 (9c6d41e410, 2022-07-14)"
   xmlns:inkscape="http://www.inkscape.org/namespaces/inkscape"
   xmlns:sodipodi="http://sodipodi.sourceforge.net/DTD/sodipodi-0.dtd"
   xmlns="http://www.w3.org/2000/svg"
   xmlns:svg="http://www.w3.org/2000/svg"><defs
   id="defs14" /><sodipodi:namedview
   id="namedview12"
   pagecolor="#ffffff"
   bordercolor="#666666"
   borderopacity="1.0"
   inkscape:showpageshadow="2"
   inkscape:pageopacity="0.0"
   inkscape:pagecheckerboard="0"
   inkscape:deskcolor="#d1d1d1"
   showgrid="false"
   inkscape:zoom="1.9232456"
   inkscape:cx="35.616876"
   inkscape:cy="104.51083"
   inkscape:window-width="1920"
   inkscape:window-height="1057"
   inkscape:window-x="-8"
   inkscape:window-y="-8"
   inkscape:window-maximized="1"
   inkscape:current-layer="svg10" />
    
    
    
    
<path
   d="m 116.92201,142.85926 c 0,10.68702 8.74465,19.43166 19.43166,19.43166 h 20.40383 c 10.68702,0 19.43166,-8.74464 19.43166,-19.43166 v -7.80916 c 9.8e-4,-10.68702 -8.74365,-19.43166 -19.43066,-19.43166 h -20.40483 c -10.68701,0 -19.43166,8.74464 -19.43166,19.43166 z"
   fill="#f0f0ff"
   id="path2"
   style="stroke-width:0.244165" /><path
   d="m 112.95394,142.85926 c 0,12.90319 10.49754,23.39973 23.39973,23.39973 h 20.40383 c 12.90319,0 23.39973,-10.49753 23.39973,-23.39973 v -7.80916 c 0.001,-12.90219 -10.49555,-23.39973 -23.39873,-23.39973 h -20.40483 c -12.90219,0 -23.39973,10.49754 -23.39973,23.39973 z m 7.93615,-7.80916 c 0,-8.5264 6.93718,-15.46359 15.46358,-15.46359 6.80128,0 17.5156,1.55986 19.36392,1.55986 8.5264,0 16.5035,5.37733 16.5035,13.90373 v 7.80916 c 0,8.52739 -6.93719,15.46359 -15.46359,15.46359 h -20.40383 c -8.5264,9.7e-4 -15.46358,-6.9362 -15.46358,-15.46359 z"
   fill="#6e6e96"
   id="path4"
   style="stroke-width:0.244165"
   sodipodi:nodetypes="sssscsssssssssscss" /><path
   d="M 155.74961,278.59516 V 139.94472 c 1.00889,-24.32628 -19.39594,-24.32628 -19.39594,-24.32628 h 175.25989 c 9.81503,0 17.84145,8.0294 17.84145,17.84244 v 169.56769 h -173.7054 v -24.43341"
   fill="#f0f0ff"
   id="path6"
   style="stroke-width:0.244165" /><path
   d="m 149.72321,115.61844 c 0,0 6.01847,7.92524 6.01847,20.83635 H 329.456 c 0,0 0.3978,-20.83635 -17.84145,-20.83635 z"
   fill="#ffffff"
   opacity="0.76"
   id="path8"
   style="stroke-width:0.244165"
   sodipodi:nodetypes="cccsc" /><path
   d="M 159.71769,278.59516 V 139.94472 l -0.003,0.16467 c 0.37498,-9.04225 0.40858,-15.41576 -4.45132,-20.48101 0,0 -6.29498,-0.0162 -6.36582,-0.0162 l -12.5439,-0.0257 h 175.25989 c 7.65044,0 13.87338,6.22393 13.87338,13.87437 l 0.77993,164.62812 -0.71152,0.71152 -164.86617,0.25998 -1.23147,-1.49145 0.25998,-18.97389 h -7.93615 v 28.40148 H 333.42407 V 133.46088 c 0,-12.02624 -9.78328,-21.81051 -21.80952,-21.81051 H 136.35367 v 7.93614 c 0.0407,10e-4 6.49772,0.13492 10.93402,4.81824 3.26375,3.44429 4.77658,8.61766 4.49583,15.37529 l -0.003,0.0823 v 138.73278 z"
   fill="#6e6e96"
   id="path10"
   style="stroke-width:0.244165"
   sodipodi:nodetypes="ccccccssccccccccssccccccc" /><path
   d="m 159.71173,136.45479 h 165.7762 v 51.59984 h -165.7762 z"
   fill="#ffffff"
   opacity="0.3"
   id="path12"
   style="stroke-width:0.244165" /><path
   d="m 194.65062,186.66382 h 51.49468 c 2.19151,0 3.96808,-1.77657 3.96808,-3.96807 0,-2.19151 -1.77657,-3.96808 -3.96808,-3.96808 h -51.49468 c -2.19151,0 -3.96807,1.77657 -3.96807,3.96808 0,2.1915 1.77656,3.96807 3.96807,3.96807 z m 0,30.11966 h 56.35359 c 2.19151,0 3.96807,-1.77656 3.96807,-3.96807 0,-2.19151 -1.77656,-3.96807 -3.96807,-3.96807 h -56.35359 c -2.19151,0 -3.96807,1.77656 -3.96807,3.96807 0,2.19151 1.77656,3.96807 3.96807,3.96807 z m 72.87169,-30.11966 h 13.60355 c 2.1915,0 3.96807,-1.77657 3.96807,-3.96807 0,-2.19151 -1.77657,-3.96808 -3.96807,-3.96808 h -13.60355 c -2.19151,0 -3.96807,1.77657 -3.96807,3.96808 0,2.1915 1.77656,3.96807 3.96807,3.96807 z"
   fill="#6e6e96"
   id="path14"
   sodipodi:nodetypes="sssssssssssssssssssss"
   style="stroke-width:0.244165" /><path
   d="m 256.05855,293.82065 v 55.02032 l 20.68953,-20.68854 20.68854,20.68854 v -53.92513"
   fill="#ff9c9c"
   id="path16"
   style="stroke-width:0.244165" /><path
   d="m 118.77907,141.42977 h 36.97054 c 0,0 2.43164,-26.33128 -18.61502,-26.33128 -21.04666,0 -20.21258,27.76077 -20.21258,27.76077"
   fill="#6e6e96"
   opacity="0.1"
   id="path18"
   style="stroke-width:0.244165"
   sodipodi:nodetypes="ccsc" /><path
   d="m 254.68559,308.08886 c 0,0 8.94404,6.94413 22.06249,6.94413 13.11845,0 20.68755,-7.56811 20.68755,-7.56811 l -5.05433,-16.24034 -32.35567,3.91153 z"
   fill="#e68c8c"
   id="path20"
   style="stroke-width:0.244165" /><path
   d="m 240.20411,303.03651 c -6.25666,-8.31907 -9.98764,-18.81958 -9.98764,-30.23276 0,-26.99083 20.87504,-48.87178 46.62486,-48.87178 25.74982,0 46.62486,21.88095 46.62486,48.87178 0,11.41814 -3.73594,21.92063 -9.99557,30.23871"
   fill="#6e6e96"
   opacity="0.15"
   id="path22"
   style="stroke-width:0.244165" /><path
   d="m 252.09047,293.82065 v 64.59926 l 6.7735,-6.77351 17.82979,-18.34874 0.10864,-0.25998 17.82979,18.60872 6.77251,6.77449 v -63.50505 l -6.89624,-0.77993 0,46.38579 0.27407,-0.20566 -15.22902,-14.96904 -2.80543,-2.80543 -2.80543,2.80543 -14.18911,14.70906 -0.24687,0.20566 0.51995,-46.44107 z"
   fill="#6e6e96"
   id="path24"
   style="stroke-width:0.244165"
   sodipodi:nodetypes="cccccccccccccccccc" /><path
   d="m 276.74808,271.65004 m -32.81696,0 a 32.816961,32.816961 0 1 0 65.63392,0 32.816961,32.816961 0 1 0 -65.63392,0 z"
   fill="#e68c8c"
   id="path26"
   style="stroke-width:0.244165" /><path
   d="m 279.15769,278.02772 m -26.54641,0 a 26.546411,26.546411 0 1 0 53.09282,0 26.546411,26.546411 0 1 0 -53.09282,0 z"
   fill="#ff9c9c"
   id="path28"
   style="stroke-width:0.244165" /><path
   d="m 276.74808,242.80115 c 15.90702,0 28.8479,12.94187 28.8479,28.84889 0,15.90602 -12.94088,28.84888 -28.8479,28.84888 -15.90801,0 -28.84988,-12.94286 -28.84988,-28.84888 0,-15.90702 12.94187,-28.84889 28.84988,-28.84889 z m -36.78603,28.84889 c 0,20.2828 16.50223,36.78503 36.78603,36.78503 20.28182,0 36.78404,-16.50223 36.78404,-36.78503 0,-20.28281 -16.50223,-36.78504 -36.78404,-36.78504 -20.2838,0 -36.78603,16.50223 -36.78603,36.78504 z"
   fill="#6e6e96"
   id="path30"
   sodipodi:nodetypes="ssssssssss"
   style="stroke-width:0.244165" /><text
   xml:space="preserve"
   style="font-style:normal;font-weight:normal;font-size:24.5894px;line-height:1.25;font-family:sans-serif;letter-spacing:0px;word-spacing:0px;fill:#6e6e96;fill-opacity:1;stroke:none;stroke-width:0.184421"
   x="164.26044"
   y="212.51248"
   id="text346"
   transform="scale(1.3239587,0.75531056)"><tspan
     id="tspan344"
     x="164.26044"
     y="212.51248"
     sodipodi:role="line"
     style="font-style:normal;font-variant:normal;font-weight:bold;font-stretch:normal;font-size:24.5894px;font-family:sans-serif;-inkscape-font-specification:'sans-serif Bold';stroke-width:0.184421">C V</tspan></text></svg>
