<?xml version="1.0" encoding="UTF-8" standalone="no"?>
<svg
   class="svg-icon"
   style="width: 1em;height: 1em;vertical-align: middle;fill: currentColor;overflow: hidden;"
   viewBox="0 0 1024 1024"
   version="1.1"
   id="svg32"
   sodipodi:docname="cvapp.svg"
   inkscape:version="1.2.1 (9c6d41e410, 2022-07-14)"
   xmlns:inkscape="http://www.inkscape.org/namespaces/inkscape"
   xmlns:sodipodi="http://sodipodi.sourceforge.net/DTD/sodipodi-0.dtd"
   xmlns="http://www.w3.org/2000/svg"
   xmlns:svg="http://www.w3.org/2000/svg">
  <defs
     id="defs36" />
  <sodipodi:namedview
     id="namedview34"
     pagecolor="#ffffff"
     bordercolor="#666666"
     borderopacity="1.0"
     inkscape:showpageshadow="2"
     inkscape:pageopacity="0.0"
     inkscape:pagecheckerboard="0"
     inkscape:deskcolor="#d1d1d1"
     showgrid="false"
     inkscape:zoom="0.85644531"
     inkscape:cx="504.9943"
     inkscape:cy="513.75143"
     inkscape:window-width="1920"
     inkscape:window-height="1057"
     inkscape:window-x="-8"
     inkscape:window-y="-8"
     inkscape:window-maximized="1"
     inkscape:current-layer="svg32" />
  <g
     id="g875">
    <path
       d="M75.758781 135.944484c0 43.769574 35.814424 79.583998 79.583998 79.583998h83.565635c43.769574 0 79.583998-35.814424 79.583998-79.583998v-31.983113C318.496475 60.191797 282.682051 24.377373 238.912477 24.377373H155.342779C111.573206 24.377373 75.758781 60.191797 75.758781 103.961371v31.983113z"
       fill="#F0F0FF"
       id="path2" />
    <path
       d="M59.507199 135.944484c0 52.846082 42.99356 95.83558 95.83558 95.83558h83.565635c52.846082 0 95.83558-42.99356 95.83558-95.83558v-31.983113C334.748057 51.119352 291.758559 8.125791 238.912477 8.125791H155.342779C102.50076 8.125791 59.507199 51.119352 59.507199 103.961371v31.983113z m32.503165-31.983113C92.010364 69.040784 120.422192 40.628955 155.342779 40.628955h83.565635c34.920587 0 63.332415 28.411828 63.332416 63.332416v31.983113c0 34.92465-28.411828 63.332415-63.332416 63.332416H155.342779C120.422192 199.280963 92.010364 170.869134 92.010364 135.944484v-31.983113z"
       fill="#6E6E96"
       id="path4" />
    <path
       d="M234.780512 691.862354V124.007697C238.912477 24.377373 155.342779 24.377373 155.342779 24.377373h717.791753c40.198288 0 73.071176 32.885076 73.071176 73.075239v694.478858H234.780512v-100.069116"
       fill="#F0F0FF"
       id="path6" />
    <path
       d="M193.062701 24.377373s41.685308 32.458472 41.685308 85.337058h711.461762S947.838992 24.377373 873.138595 24.377373H193.062701z"
       fill="#FFFFFF"
       opacity=".76"
       id="path8" />
    <path
       d="M251.032094 691.862354V124.007697l-0.012188 0.674441c1.535775-37.033293-7.776382-66.330832-27.680507-87.075977C195.378552 8.463011 156.963874 8.125791 155.342779 8.125791v32.503164h717.791753c31.33305 0 56.819594 25.490607 56.819594 56.823657v694.478858l16.251582-16.251582H234.780512l16.251582 16.251582v-100.069116h-32.503164v116.320698h743.932423V97.452612C962.461353 48.19813 922.393077 8.125791 873.138595 8.125791H155.342779v32.503164c0.166579 0.004063 26.611966 0.552554 44.781235 19.733484 13.366926 14.106373 19.562842 35.294373 18.413042 62.970818l-0.012189 0.33722v568.191877h32.507227z"
       fill="#6E6E96"
       id="path10" />
    <path
       d="M251.007717 109.714431h678.950472v211.331511H251.007717z"
       fill="#FFFFFF"
       opacity=".3"
       id="path12" />
    <path
       d="m 394.1029,315.34976 h 210.90084 c 8.97551,0 16.25158,-7.27608 16.25158,-16.25158 0,-8.9755 -7.27607,-16.25158 -16.25158,-16.25158 H 394.1029 c -8.97551,0 -16.25158,7.27608 -16.25158,16.25158 0,8.9755 7.27607,16.25158 16.25158,16.25158 z m 0,123.35764 h 230.8009 c 8.97551,0 16.25158,-7.27609 16.25158,-16.25159 0,-8.9755 -7.27607,-16.25158 -16.25158,-16.25158 H 394.1029 c -8.97551,0 -16.25158,7.27608 -16.25158,16.25158 0,8.9755 7.27607,16.25159 16.25158,16.25159 z M 692.55508,315.34976 h 55.71448 c 8.97551,0 16.25158,-7.27608 16.25158,-16.25158 0,-8.9755 -7.27607,-16.25158 -16.25158,-16.25158 h -55.71448 c -8.97551,0 -16.25158,7.27608 -16.25158,16.25158 0,8.9755 7.27607,16.25158 16.25158,16.25158 z"
       fill="#6e6e96"
       id="path14"
       sodipodi:nodetypes="sssssssssssssssssssss" />
    <path
       d="M645.604257 754.219674v225.340375l84.735749-84.731686 84.731686 84.731686V758.705111"
       fill="#FF9C9C"
       id="path16" />
    <path
       d="M83.364522 130.089852H234.780512S241.545233 24.377373 155.346842 24.377373C69.14845 24.377373 75.758781 135.944484 75.758781 135.944484"
       fill="#6E6E96"
       opacity=".1"
       id="path18" />
    <path
       d="M639.981209 812.6563s36.631066 28.440269 90.358797 28.440269 84.727623-30.99583 84.727623-30.99583l-20.700453-66.513662-132.5154 16.019997-21.870567 53.049226z"
       fill="#E68C8C"
       id="path20" />
    <path
       d="M580.67106 791.963974c-25.624682-34.071442-40.905232-77.077191-40.905232-123.820805 0-110.543262 85.495511-200.158548 190.95609-200.158548s190.95609 89.615287 190.95609 200.158548c0 46.763928-15.300865 89.777802-40.937736 123.845182"
       fill="#6E6E96"
       opacity=".15"
       id="path22" />
    <path
       d="M629.352674 754.219674v264.571694l27.741451-27.741451 84.735749-84.731686h-22.979737l84.735749 84.731686 27.737388 27.745514V758.705111h-32.503164v220.854938l27.74145-11.489869-84.731686-84.731686-11.489868-11.489869-11.489869 11.489869-84.731686 84.731686 27.737388 11.489869v-225.340375z"
       fill="#6E6E96"
       id="path24" />
    <path
       d="M730.340006 663.418022m-134.404647 0a134.404647 134.404647 0 1 0 268.809294 0 134.404647 134.404647 0 1 0-268.809294 0Z"
       fill="#E68C8C"
       id="path26" />
    <path
       d="M740.208779 689.538377m-108.723084 0a108.723084 108.723084 0 1 0 217.446168 0 108.723084 108.723084 0 1 0-217.446168 0Z"
       fill="#FF9C9C"
       id="path28" />
    <path
       d="m 730.34001,545.26496 c 65.14853,0 118.149,53.00453 118.149,118.15306 0,65.14447 -53.00047,118.15307 -118.149,118.15307 -65.1526,0 -118.15713,-53.0086 -118.15713,-118.15307 0,-65.14853 53.00453,-118.15306 118.15713,-118.15306 z m -150.6603,118.15306 c 0,83.06996 67.58627,150.65623 150.6603,150.65623 83.0659,0 150.65216,-67.58627 150.65216,-150.65623 0,-83.06996 -67.58627,-150.65623 -150.65216,-150.65623 -83.07403,0 -150.6603,67.58627 -150.6603,150.65623 z"
       fill="#6e6e96"
       id="path30"
       sodipodi:nodetypes="ssssssssss" />
    <text
       xml:space="preserve"
       style="font-style:normal;font-weight:normal;font-size:100.708px;line-height:1.25;font-family:sans-serif;letter-spacing:0px;word-spacing:0px;fill:#6e6e96;fill-opacity:1;stroke:none;stroke-width:0.755311"
       x="368.27292"
       y="275.70984"
       id="text346"
       transform="scale(1.3239587,0.75531057)"><tspan
         id="tspan344"
         x="368.27292"
         y="275.70984"
         sodipodi:role="line"
         style="font-style:normal;font-variant:normal;font-weight:bold;font-stretch:normal;font-size:100.708px;font-family:sans-serif;-inkscape-font-specification:'sans-serif Bold';stroke-width:0.755311">C V</tspan></text>
  </g>
</svg>
